<svg height="140" width="230" xmlns="http://www.w3.org/2000/svg"><rect style="fill:#99c1f1;stroke:none;stroke-width:18;stroke-linecap:round;stroke-dashoffset:26.4" width="230" height="140" x=".001" ry="8" rx="8"/><g transform="translate(-4265.995 -809.5) scale(3.77953)"><rect width="50.271" height="2.646" x="1134.003" y="223.573" rx="1.323" ry="1.323" fill="#fff" style="fill:#b3d0f4;fill-opacity:1;stroke-width:.488966"/><rect width="34.399" height="2.646" x="1134.003" y="223.573" rx="1.323" ry="1.323" fill="#fff" style="fill:#d1e3f9;fill-opacity:1;stroke-width:.488965"/><circle style="fill:#fff;fill-opacity:1;stroke-width:1.05833;stroke-linecap:round;stroke-linejoin:round;stroke-dashoffset:26.4" cx="1167.077" cy="224.896" r="3.175"/><g transform="translate(1.588 -2.646)" fill="#fff"><rect width="50.271" height="2.646" x="1132.415" y="239.448" rx="1.323" ry="1.323" style="fill:#b3d0f4;fill-opacity:1;stroke-width:.488966"/><rect width="14.553" height="2.646" x="1132.415" y="239.448" rx="1.323" ry="1.323" style="fill:#d1e3f9;fill-opacity:1;stroke-width:.488965"/><g style="stroke-width:1.11803"><path style="fill:#d1e3f9;fill-opacity:1;stroke-width:.546678" d="M1132.945 243.417h.529v2.646h-.529zm12.172 0h.529v2.646h-.529zm36.511 0h.529v2.646h-.529zm-12.17 0h.529v2.646h-.529zm-12.172 0h.529v2.646h-.529z" transform="matrix(1 0 0 .8 0 49.476)"/></g></g><rect style="fill:#fff;fill-opacity:1;stroke-width:.529167;stop-color:#000" width="2.646" height="7.937" x="1145.646" y="234.156" rx="1.323" ry="1.323"/></g></svg>