<svg xmlns="http://www.w3.org/2000/svg" xmlns:xlink="http://www.w3.org/1999/xlink" width="230" height="140"><defs><linearGradient id="a"><stop offset="0" style="stop-color:#62a0ea;stop-opacity:1"/><stop offset="1" style="stop-color:#8ff0a4;stop-opacity:1"/></linearGradient><linearGradient xlink:href="#a" id="b" x1="20" x2="209.533" y1="5" y2="114.427" gradientUnits="userSpaceOnUse"/><clipPath id="c" clipPathUnits="userSpaceOnUse"><path d="M165 75h40.006c5.54 0 10 4.46 10 10v30c0 5.54-4.46 10-10 10H165c-5.54 0-10-4.46-10-10V85c0-5.54 4.46-10 10-10m-70 0h40c5.54 0 10 4.46 10 10v30c0 5.54-4.46 10-10 10H95c-5.54 0-10-4.46-10-10V85c0-5.54 4.46-10 10-10m-70 0h40c5.54 0 10 4.46 10 10v30c0 5.54-4.46 10-10 10H25c-5.54 0-10-4.46-10-10V85c0-5.54 4.46-10 10-10m140-60h40.006c5.54 0 10 4.46 10 10v30c0 5.54-4.46 10-10 10H165c-5.54 0-10-4.46-10-10V25c0-5.54 4.46-10 10-10m-70 0h40c5.54 0 10 4.46 10 10v30c0 5.54-4.46 10-10 10H95c-5.54 0-10-4.46-10-10V25c0-5.54 4.46-10 10-10m-70 0h40c5.54 0 10 4.46 10 10v30c0 5.54-4.46 10-10 10H25c-5.54 0-10-4.46-10-10V25c0-5.54 4.46-10 10-10" style="fill:#ed333b;fill-opacity:.549391;stroke-linecap:round;stroke-opacity:.158818;paint-order:markers stroke fill"/></clipPath></defs><rect width="230" height="140" x=".001" rx="19.615" ry="19.615" style="fill:url(#b);fill-opacity:1;stroke:none;stroke-width:18;stroke-linecap:round;stroke-dashoffset:26.4"/><path fill="#99c1f1" d="M-235.003 55h45V59h-45zM-165.002 55H-145V59h-20zM-95.005 55h39.999V59h-39.999zM-235.003 110H-210v3.999h-25.002z" style="fill:#d1e3f9;fill-opacity:1;stroke-width:.999999"/><path d="M-237.009 16.99a8 8 0 0 0-2.996.591 8 8 0 0 1 2.996-.592m48.914 0a8 8 0 0 1 .379.029c-.098-.004-.19-.03-.29-.03zm21.086 0a8 8 0 0 0-2.996.591 8 8 0 0 1 2.996-.592m48.914 0a8 8 0 0 1 .387.029c-.1-.004-.194-.03-.295-.03zm21.082 0a8 8 0 0 0-3.012.595 8 8 0 0 1 3.012-.596m48.92 0a8 8 0 0 1 .361.027c-.093-.003-.18-.028-.275-.028zm-138.6.13a8 8 0 0 1 .895.213 8 8 0 0 0-.895-.213m69.998 0a8 8 0 0 1 .926.223 8 8 0 0 0-.926-.223m70.006.002a8 8 0 0 1 .905.217 8 8 0 0 0-.905-.217m-68.83.297a7.98 7.98 0 0 1 5.422 7.569v23.017h-64.906v10.983a7.985 7.985 0 0 0 8.002 8.001h48.998a7.985 7.985 0 0 0 8.002-8.001V24.99c0-3.558-2.317-6.527-5.518-7.572m70.008.004a7.98 7.98 0 0 1 5.414 7.565v23.017h-64.908v10.983a7.983 7.983 0 0 0 8 8.001h48.998a7.985 7.985 0 0 0 8.002-8.001V24.99c0-3.554-2.31-6.52-5.506-7.568m-139.986.004a7.98 7.98 0 0 1 5.404 7.56v23.018h-64.91v10.983a7.985 7.985 0 0 0 8.002 8.001h48.996a7.985 7.985 0 0 0 8.002-8.001V24.99c0-3.55-2.305-6.512-5.494-7.564m85.412.178c-.973.404-1.85.99-2.582 1.722a8 8 0 0 1 2.582-1.722m-2.582 1.722a8 8 0 0 0-1.723 2.58 8 8 0 0 1 1.723-2.58m-137.422-1.72c-.962.4-1.828.98-2.555 1.703a8 8 0 0 1 2.555-1.703m70 0c-.959.399-1.82.978-2.545 1.697a8 8 0 0 1 2.545-1.697m-72.594 1.742c-.72.725-1.3 1.59-1.701 2.549a8 8 0 0 1 1.701-2.55m69.992.012a8 8 0 0 0-1.693 2.537 8 8 0 0 1 1.693-2.537m68.278 2.623a8 8 0 0 0-.592 3 8 8 0 0 1 .592-3m-140.004.021a8 8 0 0 0-.582 2.938 8 8 0 0 1 .582-2.938m70 0a8 8 0 0 0-.582 2.938 8 8 0 0 1 .582-2.938m-13.678 49.984a8 8 0 0 1 .379.03c-.098-.004-.19-.03-.29-.03zm70 0a8 8 0 0 1 .387.03c-.1-.004-.194-.03-.295-.03zm-118.955.004a8 8 0 0 0-2.918.577 8 8 0 0 1 2.918-.577m70 0a8 8 0 0 0-2.922.577 8 8 0 0 1 2.922-.577m-19.643.127a8 8 0 0 1 .895.213 8 8 0 0 0-.895-.213m70 0a8 8 0 0 1 .9.215 8 8 0 0 0-.9-.215m1.19.305a7.98 7.98 0 0 1 5.406 7.563v23.015h-64.906v10.985a7.985 7.985 0 0 0 8.002 8.001h48.998a7.985 7.985 0 0 0 8.002-8.001V79.99c0-3.552-2.31-6.516-5.502-7.566m-69.994.002a7.98 7.98 0 0 1 5.404 7.56v23.016h-64.91v10.985a7.985 7.985 0 0 0 8.002 8.002h48.996a7.985 7.985 0 0 0 8.002-8.002V79.99c0-3.55-2.305-6.512-5.494-7.564m-54.608.184c-.947.397-1.8.971-2.52 1.681a8 8 0 0 1 2.52-1.681m70.004 0a8 8 0 0 0-2.513 1.675 8 8 0 0 1 2.513-1.675m-72.6 1.757a8 8 0 0 0-1.681 2.52 8 8 0 0 1 1.682-2.52m69.993.012a8 8 0 0 0-1.676 2.514 8 8 0 0 1 1.676-2.514m-1.711 2.627a8 8 0 0 0-.58 2.936 8 8 0 0 1 .58-2.936m-70.004.018a8 8 0 0 0-.576 2.918 8 8 0 0 1 .576-2.918" style="fill:#fff;fill-opacity:.995961;stroke-width:.999999"/><path fill="#99c1f1" d="M-165.002 110H-135v3.999h-30.002z" style="fill:#d1e3f9;fill-opacity:1;stroke-width:.999999"/><path d="M-166.91 71.985a7.98 7.98 0 0 0-8 8.002v23.017h64.909V79.987A7.98 7.98 0 0 0-118 71.989zm-70 0a7.98 7.98 0 0 0-8.001 8.002v23.017h64.913V79.987A7.98 7.98 0 0 0-188 71.989zM-96.913 16.99a7.98 7.98 0 0 0-7.997 7.997v23.017H-40V24.987a7.98 7.98 0 0 0-7.998-7.997zm-69.997 0a7.98 7.98 0 0 0-8 7.997v23.017h64.909V24.987A7.98 7.98 0 0 0-118 16.99zm-70 0a7.98 7.98 0 0 0-8.001 7.997v23.017h64.913V24.987A7.98 7.98 0 0 0-188 16.99z" style="fill:#fff;fill-opacity:.549391;stroke-width:.999999"/><g clip-path="url(#c)"><path d="M95 75h40c5.54 0 10 4.46 10 10v30c0 5.54-4.46 10-10 10H95c-5.54 0-10-4.46-10-10V85c0-5.54 4.46-10 10-10m-70 0h40c5.54 0 10 4.46 10 10v30c0 5.54-4.46 10-10 10H25c-5.54 0-10-4.46-10-10V85c0-5.54 4.46-10 10-10m140-60h40.006c5.54 0 10 4.46 10 10v30c0 5.54-4.46 10-10 10H165c-5.54 0-10-4.46-10-10V25c0-5.54 4.46-10 10-10m-70 0h40c5.54 0 10 4.46 10 10v30c0 5.54-4.46 10-10 10H95c-5.54 0-10-4.46-10-10V25c0-5.54 4.46-10 10-10m-70 0h40c5.54 0 10 4.46 10 10v30c0 5.54-4.46 10-10 10H25c-5.54 0-10-4.46-10-10V25c0-5.54 4.46-10 10-10" clip-path="none" style="fill:#fff;fill-opacity:.549391;stroke-linecap:round;stroke-opacity:.158818;paint-order:markers stroke fill"/><rect width="210" height="20" x="10" y="50" rx="0" ry="0" style="fill:#fff;fill-opacity:1;stroke-linecap:round;stroke-opacity:.158818;-inkscape-stroke:none;paint-order:markers stroke fill"/><rect width="140" height="20" x="10" y="110" rx="0" ry="0" style="fill:#fff;fill-opacity:1;stroke-width:.999996;stroke-linecap:round;stroke-opacity:.158818;-inkscape-stroke:none;paint-order:markers stroke fill"/><rect width="30" height="5" x="20" y="55" rx="2.5" ry="2.5" style="fill:#77767b;fill-opacity:1;stroke-linecap:round;stroke-opacity:.158818;-inkscape-stroke:none;paint-order:markers stroke fill"/><rect width="30" height="5" x="90" y="55" rx="2.5" ry="2.5" style="fill:#77767b;fill-opacity:1;stroke-linecap:round;stroke-opacity:.158818;-inkscape-stroke:none;paint-order:markers stroke fill"/><rect width="30" height="5" x="160" y="55" rx="2.5" ry="2.5" style="fill:#77767b;fill-opacity:1;stroke-linecap:round;stroke-opacity:.158818;-inkscape-stroke:none;paint-order:markers stroke fill"/><rect width="30" height="5" x="20" y="115" rx="2.5" ry="2.5" style="fill:#77767b;fill-opacity:1;stroke-linecap:round;stroke-opacity:.158818;-inkscape-stroke:none;paint-order:markers stroke fill"/><rect width="30" height="5" x="90" y="115" rx="2.5" ry="2.5" style="fill:#77767b;fill-opacity:1;stroke-linecap:round;stroke-opacity:.158818;-inkscape-stroke:none;paint-order:markers stroke fill"/></g></svg>