<?xml version="1.0" encoding="UTF-8" standalone="no"?>
<svg
   height="140"
   width="230"
   version="1.1"
   id="svg27891"
   sodipodi:docname="nav-tabs.svg"
   inkscape:version="1.2.1 (9c6d41e410, 2022-07-14)"
   xmlns:inkscape="http://www.inkscape.org/namespaces/inkscape"
   xmlns:sodipodi="http://sodipodi.sourceforge.net/DTD/sodipodi-0.dtd"
   xmlns="http://www.w3.org/2000/svg"
   xmlns:svg="http://www.w3.org/2000/svg">
  <defs
     id="defs27895" />
  <sodipodi:namedview
     id="namedview27893"
     pagecolor="#505050"
     bordercolor="#ffffff"
     borderopacity="1"
     inkscape:showpageshadow="0"
     inkscape:pageopacity="0"
     inkscape:pagecheckerboard="1"
     inkscape:deskcolor="#505050"
     showgrid="false"
     inkscape:current-layer="svg27891" />
  <rect
     style="fill:#1a5fb4;stroke:none;stroke-width:18;stroke-linecap:round;stroke-dashoffset:26.4;font-variation-settings:normal;opacity:1;vector-effect:none;fill-opacity:0.33;stroke-linejoin:miter;stroke-miterlimit:4;stroke-dasharray:none;stroke-opacity:1;-inkscape-stroke:none;stop-color:#000000;stop-opacity:1"
     width="230"
     height="140"
     x=".001"
     ry="8"
     rx="8"
     id="rect27873" />
  <g
     transform="translate(-2810 -430) scale(3.77953)"
     id="g27889">
    <rect
       style="fill:#b3d0f4;fill-opacity:1;stroke:none;stroke-width:4.76249;stroke-linecap:round;stroke-dashoffset:26.4"
       width="26.458"
       height="29.104"
       x="773.906"
       y="-146.844"
       ry="3.175"
       rx="3.175"
       transform="scale(1 -1)"
       id="rect27875" />
    <path
       style="fill:#99c1f1;fill-opacity:1;stroke-width:1.05833;stroke-linecap:round;stroke-linejoin:round;stroke-dashoffset:26.4"
       d="M785.283 120.65h11.113v.794h-11.113z"
       id="path27877" />
    <path
       style="fill:#d1e3f9;fill-opacity:1;stroke:none;stroke-width:4.7625;stroke-linecap:round;stroke-dashoffset:26.4"
       d="M765.175 117.74a3.168 3.168 0 0 0-3.175 3.175v14.816a3.168 3.168 0 0 0 3.175 3.175h28.575v-14.552h-3.704c-.88 0-1.588-.708-1.588-1.587v-1.852a3.168 3.168 0 0 0-3.175-3.175z"
       id="path27879" />
    <path
       style="fill:#fff;fill-opacity:1;stroke:none;stroke-width:18;stroke-linecap:round;stroke-dashoffset:26.4"
       d="M2277 65c-6.648 0-12 5.352-12 12v113h200V90h-94c-3.324 0-6-2.676-6-6v-7c0-6.648-5.352-12-12-12z"
       transform="translate(148.167 100.542) scale(.26458)"
       id="path27881" />
    <circle
       style="fill:#99c1f1;fill-opacity:1;stroke:none;stroke-width:1.05833;stroke-linecap:round;stroke-linejoin:round;stroke-dashoffset:26.4;stroke-opacity:1"
       cx="751.284"
       cy="121.047"
       r="1.191"
       id="circle27883" />
    <path
       style="fill:#99c1f1;fill-opacity:1;stroke-width:1.05833;stroke-linecap:round;stroke-linejoin:round;stroke-dashoffset:26.4"
       d="M753.533 120.65h11.113v.794h-11.113zm20.373 0h7.937v.794h-7.937z"
       id="path27885" />
    <path
       style="fill:#d1e3f9;fill-opacity:1;stroke-width:1.05833;stroke-linecap:round;stroke-linejoin:round;stroke-dashoffset:26.4"
       d="M747.448 125.677h52.917v25.135h-52.917z"
       id="path27887" />
  </g>
</svg>
