<svg xmlns="http://www.w3.org/2000/svg" xmlns:xlink="http://www.w3.org/1999/xlink" width="230" height="140"><defs><linearGradient xlink:href="#a" id="b" x1="20" x2="210" y1="30" y2="115" gradientUnits="userSpaceOnUse"/><linearGradient id="a"><stop offset="0" style="stop-color:#c01c28;stop-opacity:1"/><stop offset="1" style="stop-color:#613583;stop-opacity:1"/></linearGradient></defs><rect width="230" height="140" x=".001" rx="20" ry="20" style="font-variation-settings:normal;vector-effect:none;fill:url(#b);fill-opacity:1;stroke:none;stroke-width:18;stroke-linecap:round;stroke-linejoin:miter;stroke-miterlimit:4;stroke-dasharray:none;stroke-dashoffset:26.4;stroke-opacity:1;-inkscape-stroke:none;stop-color:#000"/><rect width="69.948" height="39.999" x="15.031" y="50" fill="#fff" rx="12" ry="12" style="fill:#241f31;fill-opacity:1;stroke:none;stroke-width:2;stroke-miterlimit:4;stroke-dasharray:none;opacity:.8"/><path d="M39.62 76.474c1.536 0 3.2-.363 4.459-.982l-.619-2.005c-.939.363-2.155.576-3.179.576-3.242 0-5.269-2.112-5.269-5.44 0-3.157 1.835-4.928 4.95-4.928 1.173 0 2.517.235 3.477.619l.789-2.134a10 10 0 0 0-4.181-.917c-4.694 0-7.872 3.093-7.872 7.744 0 4.48 3.008 7.467 7.445 7.467M50.5 76.41c.725 0 1.472-.128 2.155-.363l-.555-1.941a2.7 2.7 0 0 1-1.003.192c-.98 0-1.6-.576-1.6-1.451v-9.963H46.81v10.112c0 2.112 1.387 3.414 3.691 3.414zm-5.12-8.342h6.741v-2.176H45.38zM54.574 76.26h2.71v-7.104l-.555-3.264h-2.155zm2.198-5.888c.576-1.258 1.707-2.005 2.965-2.005.448 0 .94.086 1.323.213l.64-2.496a4.4 4.4 0 0 0-1.536-.277c-1.366 0-2.624.725-3.392 1.963zM66.223 76.431c.661 0 1.429-.15 1.983-.384l-.554-1.835c-.234.086-.47.129-.661.129-.64 0-.982-.406-.982-1.131V60.495h-2.688v13.056c0 1.792 1.088 2.88 2.902 2.88z" style="font-weight:700;font-size:5.64444px;line-height:1.25;font-family:Cantarell;-inkscape-font-specification:&quot;Cantarell Bold&quot;;text-align:center;letter-spacing:0;word-spacing:0;text-anchor:middle;fill:#c0bfbc;stroke-width:.999999"/><rect width="70.001" height="39.999" x="89.979" y="50" fill="#fff" rx="12" ry="12" style="fill:#241f31;fill-opacity:1;stroke:none;stroke-width:2;stroke-miterlimit:4;stroke-dasharray:none;opacity:.8"/><path d="M110.78 76.26h2.923l4.374-13.376h-.598l4.331 13.376h3.05l-5.14-14.805h-3.52zm3.478-3.69h7.083l-.384-2.454h-6.315zM129.298 76.431c.661 0 1.43-.15 1.984-.384l-.555-1.835c-.234.086-.469.129-.661.129-.64 0-.982-.406-.982-1.131V60.495h-2.688v13.056c0 1.792 1.089 2.88 2.902 2.88zM137 76.41c.724 0 1.471-.128 2.154-.363l-.555-1.941a2.7 2.7 0 0 1-1.002.192c-.982 0-1.6-.576-1.6-1.451v-9.963h-2.689v10.112c0 2.112 1.387 3.414 3.691 3.414zm-5.12-8.342h6.74v-2.176h-6.74z" style="font-weight:700;font-size:5.64444px;line-height:1.25;font-family:Cantarell;-inkscape-font-specification:&quot;Cantarell Bold&quot;;text-align:center;letter-spacing:0;word-spacing:0;text-anchor:middle;fill:#c0bfbc;stroke-width:.999999"/><rect width="49.999" height="39.999" x="164.976" y="50" fill="#fff" rx="12" ry="12" style="fill:#241f31;fill-opacity:1;stroke:none;stroke-width:2;stroke-miterlimit:4;stroke-dasharray:none;opacity:.8"/><path d="M182.938 76.26h2.923l4.373-13.376h-.597l4.33 13.376h3.051l-5.141-14.805h-3.52zm3.478-3.69h7.082l-.384-2.454H186.8z" style="font-weight:700;font-size:5.64444px;line-height:1.25;font-family:Cantarell;-inkscape-font-specification:&quot;Cantarell Bold&quot;;text-align:center;letter-spacing:0;word-spacing:0;text-anchor:middle;fill:#c0bfbc;stroke-width:.999999"/></svg>