<svg xmlns="http://www.w3.org/2000/svg" xmlns:xlink="http://www.w3.org/1999/xlink" height="754" width="1920"><defs><linearGradient gradientTransform="scale(-.05186 .07334) rotate(45 -4520.11 -3039.735)" y2="-127.399" x2="158.518" y1="-97.698" x1="128.817" gradientUnits="userSpaceOnUse" id="e" xlink:href="#a"/><linearGradient id="a"><stop offset="0" stop-color="#d0bb8e"/><stop offset="1" stop-color="#fff"/></linearGradient><linearGradient y2="292" x2="64" y1="254" x1="64" gradientTransform="matrix(1.3 0 0 1 -19.2 16.87)" gradientUnits="userSpaceOnUse" id="g" xlink:href="#b"/><linearGradient id="b"><stop offset="0" stop-color="#cdab8f"/><stop offset="1" stop-color="#d3b69d"/></linearGradient><linearGradient xlink:href="#b" id="l" gradientUnits="userSpaceOnUse" gradientTransform="matrix(1.3 0 0 1 -19.2 -4)" x1="64" y1="254" x2="64" y2="292"/><linearGradient xlink:href="#c" id="m" gradientUnits="userSpaceOnUse" gradientTransform="matrix(1.3 0 0 .83333 -19.2 34)" x1="64" y1="180" x2="64" y2="250"/><linearGradient id="c"><stop offset="0" stop-color="#e3cfbf"/><stop offset="1" stop-color="#e7d5c7"/></linearGradient><linearGradient xlink:href="#b" id="h" gradientUnits="userSpaceOnUse" gradientTransform="matrix(1.3 0 0 1 -19.2 -4)" x1="64" y1="254" x2="64" y2="292"/><linearGradient xlink:href="#c" id="i" gradientUnits="userSpaceOnUse" gradientTransform="matrix(1.3 0 0 .83333 -19.2 34)" x1="64" y1="180" x2="64" y2="250"/><linearGradient xlink:href="#b" id="j" gradientUnits="userSpaceOnUse" gradientTransform="matrix(1.3 0 0 1 -19.2 -4)" x1="64" y1="254" x2="64" y2="292"/><linearGradient xlink:href="#c" id="k" gradientUnits="userSpaceOnUse" gradientTransform="matrix(1.3 0 0 .83333 -19.2 34)" x1="64" y1="180" x2="64" y2="250"/><clipPath id="d" clipPathUnits="userSpaceOnUse"><path stroke-width="1.357" fill="#4a86cf" overflow="visible" color="#000" style="marker:none" d="M2330.729-970.526h1007.5V-1366.5h-1007.5z"/></clipPath></defs><path fill="#1c71d8" overflow="visible" color="#000" style="marker:none" d="M0 754h1920V0H0z"/><g transform="translate(-4440.203 2603.279) scale(1.90507)" clip-path="url(#d)"><g transform="rotate(90 2637.913 1103.389) scale(2.88666)"><path fill="url(#e)" d="M170.003 170.124l-1.993 1.993h3.986z" style="marker:none"/><path fill="#424048" style="marker:none" d="M170.003 170.124l-.797.797h1.595z"/><path fill="#f6d32d" d="M171.598 172.117h-3.189v27.633h3.189z"/><path fill="#f9f06b" d="M169.184 172.117h-1.174v27.643l1.174-.01z"/><path fill="#e5a50a" d="M170.823 172.117h1.173v27.643l-1.173-.01z"/><rect fill="#f66151" style="marker:none" width="3.969" height="3.969" x="168.01" y="199.76" rx="1.554" ry="1.554"/><path fill="#ed333b" d="M169.565 199.76a1.31 1.31 0 00-.166.01 1.55 1.55 0 011.39 1.545v.86a1.55 1.55 0 01-1.39 1.545c.055.006.11.01.166.01h.86c.86 0 1.554-.694 1.554-1.555v-.86c0-.861-.693-1.555-1.554-1.555z" style="marker:none"/><rect fill="#f6f5f4" ry="0" rx="0" y="199.76" x="168.01" height="1.323" width="3.969" style="marker:none"/><rect fill="#deddda" style="marker:none" width="1.191" height="1.323" x="170.789" y="199.76" rx="0" ry="0"/></g><g transform="translate(2477.53 -1455.549) scale(2.19794)"><rect fill-opacity=".102" ry="11.642" rx="11.642" y="158.75" x="248.708" height="35.454" width="23.283" style="marker:none"/><rect fill="#deddda" style="marker:none" width="23.283" height="35.454" x="248.708" y="157.692" rx="11.642" ry="11.642"/><rect fill="#f6f5f4" ry="11.642" rx="11.642" y="156.104" x="248.708" height="35.454" width="23.283" style="marker:none"/><path stroke-width=".265" stroke="#c0bfbc" fill="none" d="M260.615 170.656v-14.552"/><rect fill="#77767b" ry="2.646" rx="2.646" y="160.073" x="257.969" height="13.229" width="5.292" style="marker:none"/><circle fill-opacity=".102" fill="#c0bfbc" style="marker:none" cx="260.603" cy="162.003" r="1.455"/></g><g transform="rotate(45 2853.89 2587.698) scale(.95548)"><path fill-rule="evenodd" fill-opacity=".102" style="marker:none" d="M69.202 198.092c-2.25 2.117-4.37 6.101-4.37 13.602l-.014 34.5-10.179 10.178a1.92 1.92 0 00-1.343.158l-12.125 6.088c-4.633-2.888-10.848-2.327-14.864 1.688-4.671 4.672-4.672 12.321 0 16.993 4.67 4.671 12.32 4.671 16.992 0l.043-.044.005.045 15.556-15.556.017.017 5.892-5.896-.004 7.829h.025v21.999l.035-.028v.06c0 6.606 5.41 12.016 12.016 12.016s12.014-5.409 12.014-12.015c0-5.68-3.998-10.471-9.317-11.705l-4.269-12.879a1.92 1.92 0 00-.838-1.06v-13.889l24.027-24.047c11.314-11.314 4.496-18.132 4.496-18.132l-28.523 28.523v-40.845s-2.72 0-5.272 2.4zm-39.36 69.75a6.978 6.978 0 019.922 0 6.979 6.979 0 010 9.921 6.979 6.979 0 01-9.922 0 6.978 6.978 0 010-9.921zm42.069 16.91a6.994 6.994 0 014.972-2.043 6.979 6.979 0 017.015 7.017 6.978 6.978 0 01-7.015 7.015 6.979 6.979 0 01-7.016-7.016c0-1.952.778-3.706 2.044-4.972z"/><path fill-rule="evenodd" fill="#9a9996" d="M65.995 268.962h6v-72l-1.415-1.414s-6.585 5.061-6.585 17.414l.005 27.19.097 2.723 1.898 2.087z"/><use height="100%" width="100%" transform="scale(-1 1) rotate(-45 -.464 413.359)" xlink:href="#f" fill="#c0bfbc"/><g display="inline" id="f"><path transform="scale(-1 1) rotate(-45 -31.3 415.202)" fill-rule="evenodd" fill="#fff" d="M55.975 290h9.667v-72S56 218 56 234z"/><g transform="scale(-1 1) rotate(-45 -32.3 412.788)"><path fill-rule="evenodd" fill="#ed333b" d="M54 312v-24c0-2 2-2 2-2h6.037s1.918-.136 2.444 1.45l4.397 13.27z"/><circle stroke-linejoin="round" stroke-linecap="round" stroke-width="5" stroke="#ed333b" fill="none" transform="scale(-1 1)" cx="-66.05" cy="312.033" r="9.516"/><circle stroke-linejoin="round" stroke-linecap="round" stroke-width="2" stroke="#e01b24" fill="none" transform="scale(-1 1)" r="7" cy="312" cx="-66"/></g></g><circle fill="#3d3846" r="2" cy="125.865" cx="-223.446" transform="scale(-1 1) rotate(-45)"/></g><g transform="matrix(0 2.88666 2.88666 0 2747.647 -1526.123)"><rect fill="#1a5fb4" ry=".468" rx=".468" y="198.702" x="173.567" height="2.117" width="3.44" style="marker:none"/><path fill="#1a5fb4" d="M174.805 157.427h.963c.1 0 .164.083.18.184l1.058 6.482c.043.261-.208.478-.467.478h-2.505c-.259 0-.51-.217-.467-.478l1.058-6.482c.016-.1.08-.184.18-.184z" style="marker:none"/><path d="M173.302 164.042h3.969v35.719h-3.969z" fill="#fff" style="marker:none"/><rect fill="#1a5fb4" ry=".468" rx=".397" y="155.84" x="174.89" height="2.381" width=".794" style="marker:none"/><rect fill="#fff" ry="0" rx="0" y="156.633" x="174.625" height="1.058" width="1.323" style="marker:none"/><path d="M175.948 164.042h1.323v35.719h-1.323z" fill="#f6f5f4" style="marker:none"/></g><g transform="translate(2602.769 -1538.917) scale(2.43265)"><rect ry="2.884" rx="2.884" y="84.667" x="47.625" height="58.208" width="95.25" style="marker:none"/><rect fill-opacity=".102" style="marker:none" width="95.25" height="58.208" x="47.625" y="145.256" rx="2.884" ry="2.884"/><rect fill="#deddda" ry="2.884" rx="2.884" y="144.198" x="47.625" height="58.208" width="95.25" style="marker:none"/><rect fill="#f6f5f4" style="marker:none" width="95.25" height="58.208" x="47.625" y="142.875" rx="2.884" ry="2.884"/><rect fill="#c0bfbc" ry="1.958" rx="1.958" y="148.167" x="52.917" height="29.104" width="84.667" style="marker:none"/><rect fill="#deddda" style="marker:none" width="84.667" height="29.104" x="52.917" y="148.696" rx="1.958" ry="1.958"/><rect style="marker:none" width="63.5" height="7.408" x="63.5" y="137.583" rx=".826" ry=".826"/><rect fill="#deddda" style="marker:none" width="26.458" height="15.875" x="82.021" y="179.917" rx="2.884" ry="2.884"/><rect fill="#62a0ea" style="marker:none" width="92.183" height="54.975" x="49.158" y="86.284" rx="1.574" ry="1.574"/><rect fill="#241f31" ry="1.013" rx="1.013" y="170.656" x="74.083" height="5.292" width="46.302" style="marker:none"/><rect fill="#241f31" style="marker:none" width="6.615" height="5.292" x="121.708" y="170.656" rx="1.013" ry="1.013"/><rect fill="#241f31" ry="1.013" rx="1.013" y="170.656" x="129.646" height="5.292" width="6.615" style="marker:none"/><rect fill="#241f31" style="marker:none" width="5.292" height="5.292" x="125.677" y="164.042" rx="1.013" ry="1.013"/><rect fill="#241f31" ry="1.013" rx="1.013" y="164.042" x="117.74" height="5.292" width="6.615" style="marker:none"/><rect fill="#241f31" style="marker:none" width="6.615" height="5.292" x="109.802" y="164.042" rx="1.013" ry="1.013"/><rect fill="#241f31" ry="1.013" rx="1.013" y="164.042" x="101.865" height="5.292" width="6.615" style="marker:none"/><rect fill="#241f31" style="marker:none" width="6.615" height="5.292" x="93.927" y="164.042" rx="1.013" ry="1.013"/><rect fill="#241f31" ry="1.013" rx="1.013" y="164.042" x="85.99" height="5.292" width="6.615" style="marker:none"/><rect fill="#241f31" style="marker:none" width="6.615" height="5.292" x="78.052" y="164.042" rx="1.013" ry="1.013"/><rect fill="#241f31" ry="1.013" rx="1.013" y="164.042" x="70.115" height="5.292" width="6.615" style="marker:none"/><rect fill="#241f31" style="marker:none" width="6.615" height="5.292" x="62.177" y="164.042" rx="1.013" ry="1.013"/><rect fill="#241f31" ry="1.013" rx="1.013" y="157.427" x="121.708" height="5.292" width="6.615" style="marker:none"/><rect fill="#241f31" style="marker:none" width="6.615" height="5.292" x="113.771" y="157.427" rx="1.013" ry="1.013"/><rect fill="#241f31" ry="1.013" rx="1.013" y="157.427" x="105.833" height="5.292" width="6.615" style="marker:none"/><rect fill="#241f31" style="marker:none" width="6.615" height="5.292" x="97.896" y="157.427" rx="1.013" ry="1.013"/><rect fill="#241f31" ry="1.013" rx="1.013" y="157.427" x="89.958" height="5.292" width="6.615" style="marker:none"/><rect fill="#241f31" style="marker:none" width="6.615" height="5.292" x="82.021" y="157.427" rx="1.013" ry="1.013"/><rect fill="#241f31" ry="1.013" rx="1.013" y="157.427" x="74.083" height="5.292" width="6.615" style="marker:none"/><rect fill="#241f31" style="marker:none" width="6.615" height="5.292" x="66.146" y="157.427" rx="1.013" ry="1.013"/><rect fill="#241f31" ry="1.013" rx="1.013" y="157.427" x="54.24" height="5.292" width="10.583" style="marker:none"/><rect fill="#241f31" style="marker:none" width="10.583" height="5.292" x="125.677" y="150.813" rx="1.013" ry="1.013"/><rect fill="#241f31" ry="1.013" rx="1.013" y="150.813" x="117.74" height="5.292" width="6.615" style="marker:none"/><rect fill="#241f31" style="marker:none" width="6.615" height="5.292" x="109.802" y="150.813" rx="1.013" ry="1.013"/><rect fill="#241f31" ry="1.013" rx="1.013" y="150.813" x="101.865" height="5.292" width="6.615" style="marker:none"/><rect fill="#241f31" style="marker:none" width="6.615" height="5.292" x="93.927" y="150.813" rx="1.013" ry="1.013"/><rect fill="#241f31" ry="1.013" rx="1.013" y="150.813" x="85.99" height="5.292" width="6.615" style="marker:none"/><rect fill="#241f31" style="marker:none" width="6.615" height="5.292" x="78.052" y="150.813" rx="1.013" ry="1.013"/><rect fill="#241f31" ry="1.013" rx="1.013" y="150.813" x="70.115" height="5.292" width="6.615" style="marker:none"/><rect fill="#241f31" style="marker:none" width="6.615" height="5.292" x="62.177" y="150.813" rx="1.013" ry="1.013"/><rect fill="#241f31" ry="1.013" rx="1.013" y="150.813" x="54.24" height="5.292" width="6.615" style="marker:none"/><rect fill="#241f31" ry="1.013" rx="1.013" y="164.042" x="54.24" height="5.292" width="6.615" style="marker:none"/><rect fill="#241f31" ry="1.013" rx="1.013" y="170.656" x="66.146" height="5.292" width="6.615" style="marker:none"/><rect fill="#241f31" style="marker:none" width="10.583" height="5.292" x="54.24" y="170.656" rx="1.013" ry="1.013"/><rect fill="#241f31" style="marker:none" width="6.615" height="5.292" x="129.646" y="157.427" rx="1.013" ry="1.013"/><rect fill="#241f31" ry="1.013" rx="1.013" y="157.427" x="132.292" height="11.906" width="3.969" style="marker:none"/><g fill="#fff" stroke-width=".892"><path opacity=".2" d="M112.497 102.02l12.984-12.984v12.985zm12.983.001l12.053 12.053H125.48z"/><path opacity=".1" d="M101.339 138.053l12.053-12.062h-12.053z"/><path opacity=".2" d="M125.445 113.937l-12.053 12.053h12.053z"/></g></g><g transform="translate(3311.213 -1533.99) scale(2.09898)"><g transform="translate(161.93 58.874) scale(.5269)"><rect fill-opacity=".102" style="marker:none" width="88" height="104" x="-348" y="190.009" rx="8" ry="8"/><rect fill="#1e737e" ry="8" rx="8" y="188" x="-348" height="104" width="88" style="marker:none"/><rect fill="#f6f5f4" style="marker:none" width="88" height="102" x="-348" y="188" rx="8" ry="8"/><path fill="#fff" style="marker:none" d="M-340.177 188h64.72a7.805 7.805 0 017.823 7.822l-.102 94.178h-72.441a7.805 7.805 0 01-7.823-7.822v-86.356a7.805 7.805 0 017.823-7.822z"/><rect fill="#1e737e" style="marker:none" width="88" height="100" x="-348" y="180" rx="8" ry="8"/><rect fill="#27a0a4" ry="8" rx="8" y="180" x="-348" height="98" width="88" style="marker:none"/></g><g stroke-width="2" stroke="#241f31" fill="#3d3846" transform="translate(-31.97 60.455) scale(.5269)"><circle r="3" cy="187" cx="32"/><circle cx="96" cy="187" r="3"/><circle r="3" cy="187" cx="48"/><circle r="3" cy="187" cx="64"/><circle cx="80" cy="187" r="3"/></g><path fill="#deddda" overflow="visible" font-family="sans-serif" font-weight="400" color="#000" style="line-height:normal;font-variant-ligatures:normal;font-variant-position:normal;font-variant-caps:normal;font-variant-numeric:normal;font-variant-alternates:normal;font-feature-settings:normal;text-indent:0;text-align:start;text-decoration-line:none;text-decoration-style:solid;text-decoration-color:#000;text-transform:none;text-orientation:mixed;white-space:normal;shape-padding:0;isolation:auto;mix-blend-mode:normal;solid-color:#000;solid-opacity:1" d="M-15.125 149.486a1.054 1.054 0 00-1.037 1.069v8.43a1.054 1.054 0 102.107 0v-8.43a1.054 1.054 0 00-1.07-1.069zm8.432 0a1.054 1.054 0 00-1.04 1.069v8.43a1.054 1.054 0 102.108 0v-8.43a1.054 1.054 0 00-1.068-1.069zm8.43 0a1.054 1.054 0 00-1.038 1.069v8.43a1.054 1.054 0 102.108 0v-8.43a1.054 1.054 0 00-1.07-1.069zm8.429 0a1.054 1.054 0 00-1.037 1.069v8.43a1.054 1.054 0 102.107 0v-8.43a1.054 1.054 0 00-1.07-1.069zm8.432 0a1.054 1.054 0 00-1.04 1.069v8.43a1.054 1.054 0 102.108 0v-8.43a1.054 1.054 0 00-1.068-1.069z"/><circle fill="#fff" style="marker:none" cx="-15.081" cy="151.642" r="1.058"/><circle fill="#fff" r="1.058" cy="151.642" cx="-6.639" style="marker:none"/><circle fill="#fff" style="marker:none" cx="1.757" cy="151.642" r="1.058"/><circle fill="#fff" r="1.058" cy="151.642" cx="10.199" style="marker:none"/><circle fill="#fff" style="marker:none" cx="18.665" cy="151.642" r="1.058"/></g><g transform="translate(-1000.99 4648.193) scale(.93209)"><path transform="translate(3662.15 -6599.407) scale(1.38952)" d="M12 232.87h104v76H12z" fill="url(#g)"/><path d="M3678.824-6343.47h144.51v93.972h-144.51z" fill="#ac815b"/><path d="M3678.824-6249.498h144.51v2.779h-144.51z" fill="#fff" opacity=".211" style="marker:none"/><path fill="#e7d5c7" d="M3823.141-6248.491v-95.055l35.515 20.505v92.076z"/><path d="M3678.868-6342.373h144.07v53.989h-144.07z" fill="#7d5738" style="marker:none"/><path fill="#e7d5c7" d="M3678.859-6248.491v-95.055l-35.515 20.505v92.076z"/><rect fill="#e7d5c7" style="marker:none" width="144.375" height="1.25" x="3678.625" y="-6343.605" rx="0" ry="0"/><path fill="#e7d5c7" style="marker:none" d="M3679-6249.48h145v39h-145z"/></g><path d="M2210.672-1079.515h130.66v85.432h-130.66z" fill-opacity=".102" style="marker:none"/><path transform="translate(2195.596 -1360.94) scale(1.25635)" d="M12 212h104v76H12z" fill="url(#h)"/><path transform="translate(2195.596 -1360.94) scale(1.25635)" d="M12 184h104v68H12z" fill="url(#i)"/><path d="M2210.672-1044.339h130.66v2.513h-130.66z" opacity=".05" style="marker:none"/><path d="M2213.184-1129.77h2.513v85.431h-2.513zm123.123 0h2.513v85.431h-2.513z" fill="#fff" opacity=".2" style="marker:none"/><path d="M2348.87-1079.515h130.66v85.432h-130.66z" fill-opacity=".102" style="marker:none"/><path transform="translate(2333.794 -1360.94) scale(1.25635)" d="M12 212h104v76H12z" fill="url(#j)"/><path transform="translate(2333.794 -1360.94) scale(1.25635)" d="M12 184h104v68H12z" fill="url(#k)"/><path d="M2348.87-1044.339h130.66v2.513h-130.66z" opacity=".05" style="marker:none"/><path d="M2351.383-1129.77h2.513v85.431h-2.513zm123.122 0h2.513v85.431h-2.513z" fill="#fff" opacity=".2" style="marker:none"/><path fill-opacity=".102" d="M2257.81-1130.138h83.672v85.76h-77.875l-5.796-4.96z" style="marker:none"/><path d="M2341.332-1094.593v8.206h-130.66v-8.206zm80.264 9.59v8.205h-85.316v-8.205z" fill="#9a9996" style="marker:none"/><path d="M2271.9-1044.338h8.205v45.129h-8.205z" fill="#77767b" style="marker:none"/><path fill-opacity=".102" d="M2349.05-1130.138h40.555l24.593 26.797v58.964h-65.149z" style="marker:none"/><path d="M2271.9-1129.653h8.205v85.315h-8.205z" fill="#9a9996" style="marker:none"/><path transform="translate(2242.906 -1411.193) scale(1.25635)" d="M12 212h104v76H12z" fill="url(#l)"/><path transform="translate(2242.906 -1411.193) scale(1.25635)" d="M12 184h104v68H12z" fill="url(#m)"/><path d="M2257.982-1094.593h130.66v2.513h-130.66z" opacity=".05" style="marker:none"/><path d="M2260.495-1180.025h2.512v85.432h-2.512zm123.122 0h2.513v85.432h-2.513z" fill="#fff" opacity=".2" style="marker:none"/><path d="M2403.555-1044.455h8.205v45.13h-8.205z" fill="#77767b" style="marker:none"/><path d="M2403.555-1129.77h8.205v85.315h-8.205z" fill="#9a9996" style="marker:none"/><path d="M2430.86-1084.892h48.954v7.797h-48.955z" opacity=".136" style="marker:none"/><path d="M2479.472-1085.481v8.205L2430.116-1093v-8.205zm-90.828-59.364v8.205h-130.66v-8.205z" fill="#9a9996" style="marker:none"/><path d="M2319.209-1094.593h8.205v45.13h-8.205z" fill="#77767b" style="marker:none"/><path d="M2319.209-1179.908h8.205v85.315h-8.205z" fill="#9a9996" style="marker:none"/></g></svg>