<?xml version="1.0" encoding="UTF-8" standalone="no"?>
<svg
   xmlns:dc="http://purl.org/dc/elements/1.1/"
   xmlns:cc="http://creativecommons.org/ns#"
   xmlns:rdf="http://www.w3.org/1999/02/22-rdf-syntax-ns#"
   xmlns:svg="http://www.w3.org/2000/svg"
   xmlns="http://www.w3.org/2000/svg"
   xmlns:xlink="http://www.w3.org/1999/xlink"
   xmlns:sodipodi="http://sodipodi.sourceforge.net/DTD/sodipodi-0.dtd"
   xmlns:inkscape="http://www.inkscape.org/namespaces/inkscape"
   height="1080"
   width="1920"
   version="1.1"
   id="svg189"
   sodipodi:docname="app-icon-sizes.svg"
   inkscape:version="1.0.2 (e86c870879, 2021-01-15)">
  <metadata
     id="metadata193">
    <rdf:RDF>
      <cc:Work
         rdf:about="">
        <dc:format>image/svg+xml</dc:format>
        <dc:type
           rdf:resource="http://purl.org/dc/dcmitype/StillImage" />
      </cc:Work>
    </rdf:RDF>
  </metadata>
  <sodipodi:namedview
     pagecolor="#ffffff"
     bordercolor="#666666"
     borderopacity="1"
     objecttolerance="10"
     gridtolerance="10"
     guidetolerance="10"
     inkscape:pageopacity="0"
     inkscape:pageshadow="2"
     inkscape:window-width="1920"
     inkscape:window-height="1131"
     id="namedview191"
     showgrid="false"
     inkscape:zoom="0.70710678"
     inkscape:cx="566.69491"
     inkscape:cy="506.84259"
     inkscape:window-x="0"
     inkscape:window-y="0"
     inkscape:window-maximized="1"
     inkscape:current-layer="svg189">
    <inkscape:grid
       type="xygrid"
       id="grid1018" />
  </sodipodi:namedview>
  <defs
     id="defs57">
    <linearGradient
       xlink:href="#a"
       id="r"
       gradientUnits="userSpaceOnUse"
       x1="48"
       y1="204"
       x2="464"
       y2="204"
       gradientTransform="matrix(.25 0 0 .25 0 225)" />
    <linearGradient
       id="a">
      <stop
         offset="0"
         stop-color="#613583"
         id="stop3" />
      <stop
         offset=".038"
         stop-color="#c061cb"
         id="stop5" />
      <stop
         offset=".077"
         stop-color="#613583"
         id="stop7" />
      <stop
         offset=".923"
         stop-color="#613583"
         id="stop9" />
      <stop
         offset=".962"
         stop-color="#c061cb"
         id="stop11" />
      <stop
         offset="1"
         stop-color="#613583"
         id="stop13" />
    </linearGradient>
    <linearGradient
       xlink:href="#b"
       id="s"
       gradientUnits="userSpaceOnUse"
       x1="51.952"
       y1="209.311"
       x2="108"
       y2="260"
       gradientTransform="matrix(1.02326 0 0 1.14286 -129.489 -28.572)" />
    <linearGradient
       id="b">
      <stop
         offset="0"
         stop-color="#f6f5f4"
         id="stop17" />
      <stop
         offset="1"
         stop-color="#deddda"
         id="stop19" />
    </linearGradient>
    <linearGradient
       id="e">
      <stop
         offset="0"
         stop-color="#c061cb"
         id="stop22" />
      <stop
         offset="1"
         stop-color="#a347ba"
         id="stop24" />
    </linearGradient>
    <linearGradient
       xlink:href="#c"
       id="u"
       gradientUnits="userSpaceOnUse"
       gradientTransform="matrix(.75 0 0 .7 -29 109)"
       x1="60"
       y1="199.856"
       x2="68"
       y2="199.856" />
    <linearGradient
       id="c">
      <stop
         offset="0"
         stop-color="#3d3846"
         id="stop28" />
      <stop
         offset=".351"
         stop-color="#9a9996"
         id="stop30" />
      <stop
         offset=".602"
         stop-color="#77767b"
         id="stop32" />
      <stop
         offset="1"
         stop-color="#3d3846"
         id="stop34" />
    </linearGradient>
    <linearGradient
       xlink:href="#c"
       id="v"
       gradientUnits="userSpaceOnUse"
       gradientTransform="matrix(.75 0 0 .7 -29 76)"
       x1="60"
       y1="199.856"
       x2="68"
       y2="199.856" />
    <linearGradient
       xlink:href="#d"
       id="w"
       x1="-254"
       y1="64"
       x2="-206"
       y2="64"
       gradientUnits="userSpaceOnUse"
       gradientTransform="translate(-1)" />
    <linearGradient
       id="d">
      <stop
         offset="0"
         stop-color="#deddda"
         id="stop39" />
      <stop
         offset="1"
         stop-color="#f6f5f4"
         id="stop41" />
    </linearGradient>
    <linearGradient
       xlink:href="#a"
       id="f"
       gradientUnits="userSpaceOnUse"
       gradientTransform="matrix(0.25,0,0,0.25,0,225)"
       x1="48"
       y1="204"
       x2="464"
       y2="204" />
    <linearGradient
       xlink:href="#b"
       id="g"
       gradientUnits="userSpaceOnUse"
       gradientTransform="matrix(1.02326,0,0,1.14286,-129.489,-28.572)"
       x1="51.952"
       y1="209.311"
       x2="108"
       y2="260" />
    <linearGradient
       xlink:href="#c"
       id="i"
       gradientUnits="userSpaceOnUse"
       gradientTransform="matrix(0.75,0,0,0.7,-29,109)"
       x1="60"
       y1="199.856"
       x2="68"
       y2="199.856" />
    <linearGradient
       xlink:href="#c"
       id="j"
       gradientUnits="userSpaceOnUse"
       gradientTransform="matrix(0.75,0,0,0.7,-29,76)"
       x1="60"
       y1="199.856"
       x2="68"
       y2="199.856" />
    <linearGradient
       xlink:href="#d"
       id="k"
       gradientUnits="userSpaceOnUse"
       gradientTransform="translate(-1)"
       x1="-254"
       y1="64"
       x2="-206"
       y2="64" />
    <linearGradient
       xlink:href="#a"
       id="l"
       gradientUnits="userSpaceOnUse"
       gradientTransform="matrix(.25 0 0 .25 0 225)"
       x1="48"
       y1="204"
       x2="464"
       y2="204" />
    <linearGradient
       xlink:href="#b"
       id="m"
       gradientUnits="userSpaceOnUse"
       gradientTransform="matrix(1.02326 0 0 1.14286 -129.489 -28.572)"
       x1="51.952"
       y1="209.311"
       x2="108"
       y2="260" />
    <linearGradient
       xlink:href="#c"
       id="o"
       gradientUnits="userSpaceOnUse"
       gradientTransform="matrix(.75 0 0 .7 -29 109)"
       x1="60"
       y1="199.856"
       x2="68"
       y2="199.856" />
    <linearGradient
       xlink:href="#c"
       id="p"
       gradientUnits="userSpaceOnUse"
       gradientTransform="matrix(.75 0 0 .7 -29 76)"
       x1="60"
       y1="199.856"
       x2="68"
       y2="199.856" />
    <linearGradient
       xlink:href="#d"
       id="q"
       gradientUnits="userSpaceOnUse"
       gradientTransform="translate(-1)"
       x1="-254"
       y1="64"
       x2="-206"
       y2="64" />
    <radialGradient
       r="24"
       fy="64"
       fx="-223"
       cy="64"
       cx="-223"
       gradientTransform="translate(126.389 -35.555) scale(1.55555)"
       gradientUnits="userSpaceOnUse"
       id="t"
       xlink:href="#e" />
    <radialGradient
       xlink:href="#e"
       id="h"
       gradientUnits="userSpaceOnUse"
       gradientTransform="matrix(1.55555,0,0,1.55555,126.389,-35.555)"
       cx="-223"
       cy="64"
       fx="-223"
       fy="64"
       r="24" />
    <radialGradient
       xlink:href="#e"
       id="n"
       gradientUnits="userSpaceOnUse"
       gradientTransform="translate(126.389 -35.555) scale(1.55555)"
       cx="-223"
       cy="64"
       fx="-223"
       fy="64"
       r="24" />
  </defs>
  <text
     style="line-height:0%;-inkscape-font-specification:'Cantarell, Ultra-Bold';font-variant-ligatures:normal;font-variant-caps:normal;font-variant-numeric:normal;font-variant-east-asian:normal;text-align:center;fill:#2e3436"
     x="1395.7666"
     y="940.60498"
     font-weight="800"
     font-size="42.667px"
     font-family="Cantarell"
     letter-spacing="0"
     word-spacing="0"
     text-anchor="middle"
     fill="#fff"
     stroke-width="4.273"
     id="text63"><tspan
       style="line-height:1.25;-inkscape-font-specification:'Cantarell, Ultra-Bold';font-variant-ligatures:normal;font-variant-caps:normal;font-variant-numeric:normal;font-variant-east-asian:normal;fill:#2e3436"
       x="1395.7666"
       y="940.60498"
       id="tspan61">64×64 px</tspan></text>
  <text
     y="321.37427"
     x="1271.0237"
     style="line-height:0%;-inkscape-font-specification:'Cantarell, Ultra-Bold';font-variant-ligatures:normal;font-variant-caps:normal;font-variant-numeric:normal;font-variant-east-asian:normal;text-align:center;fill:#2e3436"
     font-weight="800"
     font-size="42.667px"
     font-family="Cantarell"
     letter-spacing="0"
     word-spacing="0"
     text-anchor="middle"
     fill="#fff"
     stroke-width="4.273"
     id="text71"><tspan
       y="321.37427"
       x="1271.0237"
       style="line-height:1.25;-inkscape-font-specification:'Cantarell, Ultra-Bold';font-variant-ligatures:normal;font-variant-caps:normal;font-variant-numeric:normal;font-variant-east-asian:normal;fill:#2e3436"
       id="tspan69">32×32 px</tspan></text>
  <text
     style="line-height:0%;-inkscape-font-specification:'Cantarell, Ultra-Bold';font-variant-ligatures:normal;font-variant-caps:normal;font-variant-numeric:normal;font-variant-east-asian:normal;text-align:center;fill:#2e3436;stroke-width:4.27278"
     x="424.59464"
     y="881.1759"
     font-weight="800"
     font-size="42.668px"
     font-family="Cantarell"
     letter-spacing="0"
     word-spacing="0"
     text-anchor="middle"
     fill="#ffffff"
     id="text81"><tspan
       style="line-height:1.25;-inkscape-font-specification:'Cantarell, Ultra-Bold';font-variant-ligatures:normal;font-variant-caps:normal;font-variant-numeric:normal;font-variant-east-asian:normal;fill:#2e3436;stroke-width:4.27278"
       x="424.59464"
       y="881.1759"
       id="tspan79">128×128 px</tspan></text>
  <g
     transform="matrix(1.25,0,0,1.25,1191.685,-124)"
     id="g111">
    <rect
       ry="8"
       rx="8"
       y="204"
       x="12"
       height="84"
       width="104"
       style="fill:url(#f);marker:none"
       fill="url(#f)"
       id="rect85" />
    <rect
       style="marker:none"
       width="104"
       height="96"
       x="12"
       y="184"
       rx="8"
       ry="8"
       fill="#a347ba"
       id="rect87" />
    <rect
       ry="3"
       rx="3"
       y="194"
       x="-108"
       height="80"
       width="88"
       style="marker:none"
       transform="scale(-1,1)"
       opacity="0.2"
       id="rect89" />
    <path
       fill="#3d3846"
       d="m 16,244 h 6 v 14 h -6 z m 0,-34 h 6 v 15 h -6 z"
       id="path91" />
    <rect
       ry="3"
       rx="3"
       y="192"
       x="-108"
       height="80"
       width="88"
       style="fill:url(#g);marker:none"
       transform="scale(-1,1)"
       fill="url(#g)"
       id="rect93" />
    <circle
       transform="rotate(-90)"
       r="28"
       cy="64"
       cx="-233"
       fill="#613583"
       id="circle95" />
    <circle
       cx="-231"
       cy="64"
       r="28"
       transform="rotate(-90)"
       fill="url(#h)"
       id="circle97"
       style="fill:url(#h)" />
    <path
       d="m 19,241 a 3,1 0 0 0 -3,1 v 14 h 6 v -14 a 3,1 0 0 0 -3,-1 z"
       fill="url(#i)"
       id="path99"
       style="fill:url(#i)" />
    <path
       style="marker:none"
       d="m 19,255 a 3,1 0 0 0 -3,1 3,1 0 0 0 3,1 3,1 0 0 0 1,-0.059 V 256 h 2 a 3,1 0 0 0 -3,-1 z m 0,-8 c -1.656,0 -3,0.447 -3,1 v 2 c 0,-0.553 1.344,-1 3,-1 1.657,0 3,0.447 3,1 v -2 c 0,-0.553 -1.343,-1 -3,-1 z m 1.198,2.916 -0.057,0.008 z"
       fill="#3d3846"
       id="path101" />
    <path
       d="m 19,208 a 3,1 0 0 0 -3,1 v 14 h 6 v -14 a 3,1 0 0 0 -3,-1 z"
       fill="url(#j)"
       id="path103"
       style="fill:url(#j)" />
    <path
       d="m 19,222 a 3,1 0 0 0 -3,1 3,1 0 0 0 3,1 3,1 0 0 0 1,-0.059 V 223 h 2 a 3,1 0 0 0 -3,-1 z m 0,-8 c -1.656,0 -3,0.447 -3,1 v 2 c 0,-0.553 1.344,-1 3,-1 1.657,0 3,0.447 3,1 v -2 c 0,-0.553 -1.343,-1 -3,-1 z m 1.198,2.916 -0.057,0.008 z"
       style="marker:none"
       fill="#3d3846"
       id="path105" />
    <circle
       r="24"
       cy="64"
       cx="-231"
       transform="rotate(-90)"
       fill="url(#k)"
       id="circle107"
       style="fill:url(#k)" />
    <path
       d="m 68,215 h -8 v 10 h 4 v 2 l -4,2 v 18 h 8 v -10 l -4,-2 4,-2 z"
       fill="#3d3846"
       id="path109" />
  </g>
  <g
     transform="matrix(2.5 0 0 2.5 1236.684 89.953)"
     id="g139">
    <rect
       ry="8"
       rx="8"
       y="204"
       x="12"
       height="84"
       width="104"
       style="marker:none"
       fill="url(#l)"
       id="rect113" />
    <rect
       style="marker:none"
       width="104"
       height="96"
       x="12"
       y="184"
       rx="8"
       ry="8"
       fill="#a347ba"
       id="rect115" />
    <rect
       ry="3"
       rx="3"
       y="194"
       x="-108"
       height="80"
       width="88"
       style="marker:none"
       transform="scale(-1 1)"
       opacity=".2"
       id="rect117" />
    <path
       fill="#3d3846"
       d="M16 244h6v14h-6zm0-34h6v15h-6z"
       id="path119" />
    <rect
       ry="3"
       rx="3"
       y="192"
       x="-108"
       height="80"
       width="88"
       style="marker:none"
       transform="scale(-1 1)"
       fill="url(#m)"
       id="rect121" />
    <circle
       transform="rotate(-90)"
       r="28"
       cy="64"
       cx="-233"
       fill="#613583"
       id="circle123" />
    <circle
       cx="-231"
       cy="64"
       r="28"
       transform="rotate(-90)"
       fill="url(#n)"
       id="circle125" />
    <path
       d="M19 241a3 1 0 00-3 1v14h6v-14a3 1 0 00-3-1z"
       fill="url(#o)"
       id="path127" />
    <path
       style="marker:none"
       d="M19 255a3 1 0 00-3 1 3 1 0 003 1 3 1 0 001-.059V256h2a3 1 0 00-3-1zm0-8c-1.656 0-3 .447-3 1v2c0-.553 1.344-1 3-1 1.657 0 3 .447 3 1v-2c0-.553-1.343-1-3-1zm1.198 2.916l-.057.008.057-.008z"
       fill="#3d3846"
       id="path129" />
    <path
       d="M19 208a3 1 0 00-3 1v14h6v-14a3 1 0 00-3-1z"
       fill="url(#p)"
       id="path131" />
    <path
       d="M19 222a3 1 0 00-3 1 3 1 0 003 1 3 1 0 001-.059V223h2a3 1 0 00-3-1zm0-8c-1.656 0-3 .447-3 1v2c0-.553 1.344-1 3-1 1.657 0 3 .447 3 1v-2c0-.553-1.343-1-3-1zm1.198 2.916l-.057.008.057-.008z"
       style="marker:none"
       fill="#3d3846"
       id="path133" />
    <circle
       r="24"
       cy="64"
       cx="-231"
       transform="rotate(-90)"
       fill="url(#q)"
       id="circle135" />
    <path
       d="M68 215h-8v10h4v2l-4 2v18h8v-10l-4-2 4-2z"
       fill="#3d3846"
       id="path137" />
  </g>
  <text
     style="line-height:0%;-inkscape-font-specification:'Cantarell, Ultra-Bold';font-variant-ligatures:normal;font-variant-caps:normal;font-variant-numeric:normal;font-variant-east-asian:normal;text-align:center;fill:#2e3436"
     x="858.67902"
     y="739.24463"
     font-weight="800"
     font-size="28.806px"
     font-family="Cantarell"
     letter-spacing="0"
     word-spacing="0"
     text-anchor="middle"
     fill="#99c1f1"
     stroke-width="2.885"
     id="text143"><tspan
       style="line-height:1.25;-inkscape-font-specification:'Cantarell, Ultra-Bold';font-variant-ligatures:normal;font-variant-caps:normal;font-variant-numeric:normal;font-variant-east-asian:normal;fill:#2e3436"
       x="858.67902"
       y="739.24463"
       id="tspan141">Level of detail</tspan></text>
  <path
     style="marker:none;fill:#99c1f1"
     fill="#99c1f1"
     d="M 105,105 H 745 V 745 H 105 Z"
     id="path145" />
  <circle
     style="marker:none"
     r="297.521"
     cy="425"
     cx="425"
     fill="none"
     stroke="#ffffff"
     stroke-width="4.95"
     stroke-dasharray="4.95, 4.95"
     id="circle147" />
  <rect
     style="marker:none"
     width="435.04999"
     height="555.04999"
     x="207.47501"
     y="147.47499"
     rx="43.505001"
     ry="39.646"
     fill="none"
     stroke="#ffffff"
     stroke-width="4.95"
     stroke-dasharray="4.95, 4.95"
     id="rect149" />
  <rect
     style="marker:none"
     width="515.047"
     height="515.047"
     x="167.476"
     y="167.476"
     rx="39.618999"
     ry="39.618999"
     opacity="0.1"
     fill="none"
     stroke="#000000"
     stroke-width="4.95"
     stroke-dasharray="4.95, 4.95"
     id="rect151" />
  <rect
     style="marker:none"
     width="555.04999"
     height="435.04999"
     x="147.47501"
     y="247.47499"
     rx="39.646"
     ry="43.505001"
     fill="none"
     stroke="#ffffff"
     stroke-width="4.95"
     stroke-dasharray="4.95, 4.95"
     id="rect153" />
  <path
     d="M 105,690 H 745"
     fill="none"
     stroke="#ffffff"
     stroke-width="10"
     id="path155" />
  <rect
     width="30"
     height="30"
     x="713.5"
     y="713.5"
     rx=".57"
     ry=".57"
     opacity=".4"
     fill="#fff"
     stroke="#1a5fb4"
     stroke-width="3"
     id="rect159"
     style="opacity:1;stroke:#2e3436" />
  <g
     transform="matrix(5 0 0 5 104.998 -754.999)"
     id="g187">
    <rect
       ry="8"
       rx="8"
       y="204"
       x="12"
       height="84"
       width="104"
       style="marker:none"
       fill="url(#r)"
       id="rect161" />
    <rect
       style="marker:none"
       width="104"
       height="96"
       x="12"
       y="184"
       rx="8"
       ry="8"
       fill="#a347ba"
       id="rect163" />
    <rect
       ry="3"
       rx="3"
       y="194"
       x="-108"
       height="80"
       width="88"
       style="marker:none"
       transform="scale(-1 1)"
       opacity=".2"
       id="rect165" />
    <path
       fill="#3d3846"
       d="M16 244h6v14h-6zm0-34h6v15h-6z"
       id="path167" />
    <rect
       ry="3"
       rx="3"
       y="192"
       x="-108"
       height="80"
       width="88"
       style="marker:none"
       transform="scale(-1 1)"
       fill="url(#s)"
       id="rect169" />
    <circle
       transform="rotate(-90)"
       r="28"
       cy="64"
       cx="-233"
       fill="#613583"
       id="circle171" />
    <circle
       cx="-231"
       cy="64"
       r="28"
       transform="rotate(-90)"
       fill="url(#t)"
       id="circle173" />
    <path
       d="M19 241a3 1 0 00-3 1v14h6v-14a3 1 0 00-3-1z"
       fill="url(#u)"
       id="path175" />
    <path
       style="marker:none"
       d="M19 255a3 1 0 00-3 1 3 1 0 003 1 3 1 0 001-.059V256h2a3 1 0 00-3-1zm0-8c-1.656 0-3 .447-3 1v2c0-.553 1.344-1 3-1 1.657 0 3 .447 3 1v-2c0-.553-1.343-1-3-1zm1.198 2.916l-.057.008.057-.008z"
       fill="#3d3846"
       id="path177" />
    <path
       d="M19 208a3 1 0 00-3 1v14h6v-14a3 1 0 00-3-1z"
       fill="url(#v)"
       id="path179" />
    <path
       d="M19 222a3 1 0 00-3 1 3 1 0 003 1 3 1 0 001-.059V223h2a3 1 0 00-3-1zm0-8c-1.656 0-3 .447-3 1v2c0-.553 1.344-1 3-1 1.657 0 3 .447 3 1v-2c0-.553-1.343-1-3-1zm1.198 2.916l-.057.008.057-.008z"
       style="marker:none"
       fill="#3d3846"
       id="path181" />
    <circle
       r="24"
       cy="64"
       cx="-231"
       transform="rotate(-90)"
       fill="url(#w)"
       id="circle183" />
    <path
       d="M68 215h-8v10h4v2l-4 2v18h8v-10l-4-2 4-2z"
       fill="#3d3846"
       id="path185" />
  </g>
</svg>
